SplineFontDB: 3.0
FontName: Untitled1
FullName: Untitled1
FamilyName: Untitled1
Weight: Regular
Copyright: Copyright (c) 2017, ウルヰ,,,
UComments: "2017-11-16: Created with FontForge (http://fontforge.org)"
Version: 001.000
ItalicAngle: 0
UnderlinePosition: -100
UnderlineWidth: 50
Ascent: 800
Descent: 200
InvalidEm: 0
LayerCount: 2
Layer: 0 0 "Back" 1
Layer: 1 0 "Fore" 0
XUID: [1021 881 2055310830 506785]
StyleMap: 0x0000
FSType: 0
OS2Version: 0
OS2_WeightWidthSlopeOnly: 0
OS2_UseTypoMetrics: 1
CreationTime: 1510834338
ModificationTime: 1510836206
OS2TypoAscent: 0
OS2TypoAOffset: 1
OS2TypoDescent: 0
OS2TypoDOffset: 1
OS2TypoLinegap: 90
OS2WinAscent: 0
OS2WinAOffset: 1
OS2WinDescent: 0
OS2WinDOffset: 1
HheadAscent: 0
HheadAOffset: 1
HheadDescent: 0
HheadDOffset: 1
DEI: 91125
Encoding: ISO8859-1
UnicodeInterp: none
NameList: AGL For New Fonts
DisplaySize: -48
AntiAlias: 1
FitToEm: 0
WinInfo: 0 38 14
BeginChars: 256 32

StartChar: zero
Encoding: 48 48 0
Width: 400
VWidth: 0
Flags: W
HStem: 24 21G<46 86> 397 41<86 354> 744 20G<46 86>
VStem: 46 40<24 397 438 764>
LayerCount: 2
Fore
SplineSet
46 24 m 25
 46 764 l 1
 86 764 l 25
 86 438 l 25
 354 438 l 25
 354 397 l 25
 86 397 l 1
 86 24 l 25
 46 24 l 25
EndSplineSet
Validated: 1
EndChar

StartChar: F
Encoding: 70 70 1
Width: 400
VWidth: 0
Flags: W
VStem: 46 308
LayerCount: 2
Fore
SplineSet
354 24 m 29
 354 764 l 5
 314 764 l 29
 314 438 l 29
 46 438 l 29
 46 397 l 29
 314 397 l 5
 314 24 l 29
 354 24 l 29
EndSplineSet
Validated: 9
EndChar

StartChar: one
Encoding: 49 49 2
Width: 400
VWidth: 0
Flags: W
HStem: 23 41<168.53 354> 744 20G<46 86>
VStem: 46 40<121.452 764>
LayerCount: 2
Fore
SplineSet
46 158 m 0
 46 764 l 1
 86 764 l 17
 86 249 l 8
 88 198 80.2894154255 150.717172261 107 120 c 0
 147 74 252 61 354 64 c 9
 354 23 l 1
 247 22 173 32 112 68 c 0
 81.1283850838 86.219313721 49 121 46 158 c 0
EndSplineSet
Validated: 524321
EndChar

StartChar: E
Encoding: 69 69 3
Width: 400
VWidth: 0
Flags: W
HStem: 23 41<46 231.47>
VStem: 314 40<121.452 249>
LayerCount: 2
Fore
SplineSet
354 158 m 4
 354 764 l 5
 314 764 l 21
 314 249 l 12
 312 198 319.7109375 150.716796875 293 120 c 4
 253 74 148 61 46 64 c 13
 46 23 l 5
 153 22 227 32 288 68 c 4
 318.872070312 86.2197265625 351 121 354 158 c 4
EndSplineSet
Validated: 524329
EndChar

StartChar: seven
Encoding: 55 55 4
Width: 400
VWidth: 0
Flags: W
HStem: 23 21G<314 354> 723 41<46 231.47>
VStem: 314 40<23 665.548>
LayerCount: 2
Fore
SplineSet
354 629 m 4
 354 23 l 5
 314 23 l 21
 314 538 l 12
 312 589 319.7109375 636.283203125 293 667 c 4
 253 713 148 726 46 723 c 13
 46 764 l 5
 153 765 227 755 288 719 c 4
 318.872070312 700.780273438 351 666 354 629 c 4
EndSplineSet
Validated: 524321
EndChar

StartChar: nine
Encoding: 57 57 5
Width: 400
VWidth: 0
Flags: W
HStem: 21 21G<324.5 371> 748 20G<330 357>
VStem: 21 39<213.075 599.709>
LayerCount: 2
Fore
SplineSet
21 553 m 3
 21 620 73.4580078125 652.817382812 133 681 c 0
 208.783203125 716.87109375 303 749 357 768 c 1
 357 730 l 1
 202 666 277.783203125 701.87109375 202 666 c 0
 142.458007812 637.81640625 60 619 60 552 c 3
 60 498.764648438 62 398.189453125 62 273 c 0
 62 210 110 167 173 134 c 0
 230.424804688 103.919921875 317 77 371 59 c 1
 371 21 l 1
 278 46 189.931640625 79.291015625 137 108 c 0
 78 140 21 199 21 262 c 3
 21 392.095703125 21 497.91796875 21 553 c 3
EndSplineSet
Validated: 524289
EndChar

StartChar: two
Encoding: 50 50 6
Width: 400
VWidth: 0
Flags: W
HStem: 21 38<35 120.412> 744 20G<46 86>
VStem: 46 40<424.92 764>
LayerCount: 2
Fore
SplineSet
46 439 m 0
 46 764 l 1
 86 764 l 17
 86 471 l 0
 86 471 75.5051058984 432.054845448 130 411 c 0
 174 394 251 386 308 374 c 8
 331 369 351.965591276 352.001610259 351 331 c 0
 347 244 317 184 255 123 c 24
 188 57 135 32 35 21 c 1
 35 59 l 1
 123 67 172.803710938 95.203125 234 154 c 0
 285 203 292.004866673 236.013383352 316 302 c 0
 320 313 320 332 295 341 c 0
 232.235351562 363.595703125 163.088002718 364.322460807 116 377 c 0
 38 398 46 439 46 439 c 0
EndSplineSet
Validated: 524321
EndChar

StartChar: four
Encoding: 52 52 7
Width: 400
VWidth: 0
Flags: W
HStem: 726 38<35 120.412>
VStem: 46 40<314 360.08>
LayerCount: 2
Fore
SplineSet
46 346 m 4
 46 21 l 5
 86 21 l 21
 86 314 l 4
 86 314 75.5048828125 352.9453125 130 374 c 4
 174 391 251 399 308 411 c 12
 331 416 351.965820312 432.998046875 351 454 c 4
 347 541 317 601 255 662 c 28
 188 728 135 753 35 764 c 5
 35 726 l 5
 123 718 172.803710938 689.796875 234 631 c 4
 285 582 292.004882812 548.986328125 316 483 c 4
 320 472 320 453 295 444 c 4
 232.235351562 421.404296875 163.087890625 420.677734375 116 408 c 4
 38 387 46 346 46 346 c 4
EndSplineSet
Validated: 524329
EndChar

StartChar: D
Encoding: 68 68 8
Width: 400
VWidth: 0
Flags: W
HStem: 21 38<265.588 351>
VStem: 300 40<424.92 471>
LayerCount: 2
Fore
SplineSet
340 439 m 4
 340 764 l 5
 300 764 l 21
 300 471 l 4
 300 471 310.495117188 432.0546875 256 411 c 4
 212 394 135 386 78 374 c 12
 55 369 34.0341796875 352.001953125 35 331 c 4
 39 244 69 184 131 123 c 28
 198 57 251 32 351 21 c 5
 351 59 l 5
 263 67 213.196289062 95.203125 152 154 c 4
 101 203 93.9951171875 236.013671875 70 302 c 4
 66 313 66 332 91 341 c 4
 153.764648438 363.595703125 222.912109375 364.322265625 270 377 c 4
 348 398 340 439 340 439 c 4
EndSplineSet
Validated: 524329
EndChar

StartChar: B
Encoding: 66 66 9
Width: 400
VWidth: 0
Flags: W
HStem: 21 21G<300 340> 726 38<265.588 351>
VStem: 300 40<21 360.08>
LayerCount: 2
Fore
SplineSet
340 346 m 4
 340 21 l 5
 300 21 l 21
 300 314 l 4
 300 314 310.495117188 352.9453125 256 374 c 4
 212 391 135 399 78 411 c 12
 55 416 34.0341796875 432.998046875 35 454 c 4
 39 541 69 601 131 662 c 28
 198 728 251 753 351 764 c 5
 351 726 l 5
 263 718 213.196289062 689.796875 152 631 c 4
 101 582 93.9951171875 548.986328125 70 483 c 4
 66 472 66 453 91 444 c 4
 153.764648438 421.404296875 222.912109375 420.677734375 270 408 c 4
 348 387 340 346 340 346 c 4
EndSplineSet
Validated: 524321
EndChar

StartChar: three
Encoding: 51 51 10
Width: 400
VWidth: 0
Flags: W
HStem: 744 20G<49 89>
VStem: 49 40<432.021 764> 293 40<6 337.979>
LayerCount: 2
Fore
SplineSet
191.299804688 369.618164062 m 1
 164.4921875 374.58984375 142.377929688 375.783203125 123 381 c 0
 45 402 49 443 49 443 c 0
 49 764 l 1
 89 764 l 17
 89 475 l 0
 89 475 82.5048828125 436.0546875 137 415 c 0
 151.828125 409.270507812 169.404296875 406.564453125 191.640625 400.936523438 c 1
 216.5078125 397.41015625 239.622070312 394.216796875 259 389 c 0
 337 368 333 327 333 327 c 0
 333 6 l 1
 293 6 l 17
 293 295 l 0
 293 295 299.495117188 333.9453125 245 355 c 0
 230.171875 360.728515625 211.595703125 365.435546875 191.299804688 369.618164062 c 1
EndSplineSet
Validated: 524321
EndChar

StartChar: C
Encoding: 67 67 11
Width: 400
VWidth: 0
Flags: W
VStem: 49 40<295 337.979> 293 40<432.021 475>
LayerCount: 2
Fore
SplineSet
191.299804688 400.381835938 m 1
 164.4921875 395.41015625 142.377929688 394.216796875 123 389 c 0
 45 368 49 327 49 327 c 0
 49 6 l 1
 89 6 l 17
 89 295 l 0
 89 295 82.5048828125 333.9453125 137 355 c 0
 151.828125 360.729492188 169.404296875 363.435546875 191.640625 369.063476562 c 1
 216.5078125 372.58984375 239.622070312 375.783203125 259 381 c 0
 337 402 333 443 333 443 c 0
 333 764 l 1
 293 764 l 17
 293 475 l 0
 293 475 299.495117188 436.0546875 245 415 c 0
 230.171875 409.271484375 211.595703125 404.564453125 191.299804688 400.381835938 c 1
EndSplineSet
Validated: 524329
EndChar

StartChar: eight
Encoding: 56 56 12
Width: 400
VWidth: 0
Flags: W
HStem: 723 41<168.53 354>
VStem: 46 40<538 665.548>
LayerCount: 2
Fore
SplineSet
46 629 m 4
 46 23 l 5
 86 23 l 21
 86 538 l 12
 88 589 80.2890625 636.283203125 107 667 c 4
 147 713 252 726 354 723 c 13
 354 764 l 5
 247 765 173 755 112 719 c 4
 81.1279296875 700.780273438 49 666 46 629 c 4
EndSplineSet
Validated: 524329
EndChar

StartChar: five
Encoding: 53 53 13
Width: 400
VWidth: 0
Flags: W
HStem: 21 38<314.804 371> 748 20G<35 62>
VStem: 21 45<208.862 353.658> 328 43<523.863 612.9>
LayerCount: 2
Fore
SplineSet
137 108 m 0
 85.2214326805 144.984690942 21 199 21 262 c 3
 21 392.096118313 91.3505859375 402.104492188 159 439 c 0
 225.580078125 475.3125 328 511.764673383 328 565 c 3
 328 632 249.541992188 637.81640625 190 666 c 0
 114.216796875 701.87109375 190 666 35 730 c 1
 35 768 l 1
 89 749 183.216796875 716.87109375 259 681 c 0
 318.541992188 652.817382812 371 620 371 553 c 3
 371 497.918242584 280.580078125 463.313476562 214 427 c 0
 146.350585938 390.103515625 66 392.067207912 66 273 c 3
 66 210 114 179 173 138 c 0
 226.234751022 101.006359459 317 77 371 59 c 1
 371 21 l 1
 278 46 186 73 137 108 c 0
EndSplineSet
Validated: 524289
EndChar

StartChar: A
Encoding: 65 65 14
Width: 400
VWidth: 0
Flags: W
HStem: 21 38<21 77.1961>
VStem: 21 43<523.862 612.9> 326 45<208.862 353.658>
LayerCount: 2
Fore
SplineSet
255 108 m 0
 306.778320312 144.984375 371 199 371 262 c 3
 371 392.095703125 300.649414062 402.104492188 233 439 c 0
 166.419921875 475.3125 64 511.764648438 64 565 c 3
 64 632 142.458007812 637.81640625 202 666 c 0
 277.783203125 701.87109375 202 666 357 730 c 1
 357 768 l 1
 303 749 208.783203125 716.87109375 133 681 c 0
 73.4580078125 652.817382812 21 620 21 553 c 3
 21 497.91796875 111.419921875 463.313476562 178 427 c 0
 245.649414062 390.103515625 326 392.067382812 326 273 c 3
 326 210 278 179 219 138 c 0
 165.765625 101.006835938 75 77 21 59 c 1
 21 21 l 1
 114 46 206 73 255 108 c 0
EndSplineSet
Validated: 524297
EndChar

StartChar: six
Encoding: 54 54 15
Width: 400
VWidth: 0
Flags: W
VStem: 332 39<213.075 273 552 599.709>
LayerCount: 2
Fore
SplineSet
371 553 m 3
 371 620 318.541992188 652.817382812 259 681 c 0
 183.216796875 716.87109375 89 749 35 768 c 1
 35 730 l 1
 190 666 114.216839909 701.871184665 190 666 c 0
 249.541992188 637.81640625 332 619 332 552 c 3
 332 498.764648438 330 398.189793479 330 273 c 0
 330 210 282 167 219 134 c 0
 161.575203825 103.920344861 75 77 21 59 c 1
 21 21 l 1
 114 46 202.0679744 79.2911047596 255 108 c 0
 314 140 371 199 371 262 c 3
 371 392.095703125 371 497.918242584 371 553 c 3
EndSplineSet
Validated: 524297
EndChar

StartChar: G
Encoding: 71 71 16
Width: 400
VWidth: 0
Flags: W
HStem: 24 21G<46 86> 397 41<86 354> 744 20G<46 86>
VStem: 46 40<24 397 438 621.5 680.869 764>
LayerCount: 2
Fore
SplineSet
46 621.5 m 1
 15 612 l 1
 19 660 l 1
 46 668.409836066 l 1
 46 764 l 1
 86 764 l 1
 86 680.868852459 l 1
 141 698 l 1
 139 650 l 1
 86 633.758064516 l 1
 86 438 l 1
 354 438 l 1
 354 397 l 1
 86 397 l 1
 86 24 l 1
 46 24 l 1
 46 621.5 l 1
EndSplineSet
Validated: 524289
EndChar

StartChar: H
Encoding: 72 72 17
Width: 400
VWidth: 0
Flags: W
HStem: 23 41<168.53 354> 744 20G<46 86>
VStem: 46 40<121.452 592.654 648.4 764>
LayerCount: 2
Fore
SplineSet
46 592.653846154 m 1
 21 584 l 1
 25 624 l 1
 46 632.4 l 1
 46 764 l 1
 86 764 l 1
 86 648.4 l 1
 135 668 l 1
 125 620 l 1
 86 606.5 l 1
 86 249 l 2
 88 198 80.2894154255 150.717172261 107 120 c 0
 147 74 252 61 354 64 c 1
 354 23 l 1
 247 22 173 32 112 68 c 0
 81.1283850838 86.219313721 49 121 46 158 c 2
 46 592.653846154 l 1
EndSplineSet
Validated: 524321
EndChar

StartChar: I
Encoding: 73 73 18
Width: 400
VWidth: 0
Flags: W
HStem: 21 38<35 120.412> 744 20G<46 86>
VStem: 46 40<424.92 638.231 706.588 764>
LayerCount: 2
Fore
SplineSet
46 638.230769231 m 1
 18 628 l 1
 20 682 l 1
 46 691.68627451 l 1
 46 764 l 1
 86 764 l 1
 86 706.588235294 l 1
 122 720 l 1
 122 666 l 1
 86 652.846153846 l 1
 86 471 l 1
 86 471 75.5051058984 432.054845448 130 411 c 0
 174 394 251 386 308 374 c 0
 331 369 351.965591276 352.001610259 351 331 c 0
 347 244 317 184 255 123 c 0
 188 57 135 32 35 21 c 1
 35 59 l 1
 123 67 172.803710938 95.203125 234 154 c 0
 285 203 292.004866673 236.013383352 316 302 c 0
 320 313 320 332 295 341 c 0
 232.235351562 363.595703125 163.088002718 364.322460807 116 377 c 0
 38 398 46 439 46 439 c 1
 46 638.230769231 l 1
EndSplineSet
Validated: 524321
EndChar

StartChar: J
Encoding: 74 74 19
Width: 400
VWidth: 0
Flags: W
HStem: 744 20G<49 89>
VStem: 49 40<432.021 639.327 707.706 764> 293 40<6 337.979>
LayerCount: 2
Fore
SplineSet
191.299804688 369.618164062 m 0
 164.4921875 374.58984375 142.377929688 375.783203125 123 381 c 0
 45 402 49 443 49 443 c 1
 49 639.326923077 l 1
 18 628 l 1
 20 682 l 1
 49 692.803921569 l 1
 49 764 l 1
 89 764 l 1
 89 707.705882353 l 1
 122 720 l 1
 122 666 l 1
 89 653.942307692 l 1
 89 475 l 1
 89 475 82.5048828125 436.0546875 137 415 c 0
 151.828125 409.270507812 169.404296875 406.564453125 191.640625 400.936523438 c 0
 216.5078125 397.41015625 239.622070312 394.216796875 259 389 c 0
 337 368 333 327 333 327 c 1
 333 6 l 1
 293 6 l 1
 293 295 l 1
 293 295 299.495117188 333.9453125 245 355 c 0
 230.171875 360.728515625 211.595703125 365.435546875 191.299804688 369.618164062 c 0
EndSplineSet
Validated: 524321
EndChar

StartChar: K
Encoding: 75 75 20
Width: 400
VWidth: 0
Flags: W
HStem: 726 38<35 120.412>
VStem: 46 40<314 360.08>
LayerCount: 2
Fore
SplineSet
20 192 m 1
 18 138 l 1
 46 148.230769231 l 1
 46 21 l 1
 86 21 l 1
 86 162.846153846 l 1
 122 176 l 1
 122 230 l 1
 86 216.588235294 l 1
 86 314 l 1
 86 314 75.5048828125 352.9453125 130 374 c 0
 174 391 251 399 308 411 c 0
 331 416 351.965820312 432.998046875 351 454 c 0
 347 541 317 601 255 662 c 0
 188 728 135 753 35 764 c 1
 35 726 l 1
 123 718 172.803710938 689.796875 234 631 c 0
 285 582 292.004882812 548.986328125 316 483 c 0
 320 472 320 453 295 444 c 0
 232.235351562 421.404296875 163.087890625 420.677734375 116 408 c 0
 38 387 46 346 46 346 c 1
 46 201.68627451 l 1
 20 192 l 1
EndSplineSet
Validated: 524329
EndChar

StartChar: L
Encoding: 76 76 21
Width: 400
VWidth: 0
Flags: W
HStem: 21 38<314.804 371> 748 20G<35 62>
VStem: 21 45<209.247 353.268> 328 43<524.431 612.9>
LayerCount: 2
Fore
SplineSet
137 108 m 0
 85.2214326805 144.984690942 21 199 21 262 c 0
 21 392.096118313 91.3505859375 402.104492188 159 439 c 0
 160.206557235 439.658051339 161.424884385 440.316148548 162.654158628 440.974390675 c 2
 137 491 l 1
 171 541 l 1
 206.706019943 463.179187303 l 1
 265.709830164 492.174873076 328 523.483812916 328 565 c 0
 328 632 249.541992188 637.81640625 190 666 c 0
 114.216796875 701.87109375 190 666 35 730 c 1
 35 768 l 1
 89 749 183.216796875 716.87109375 259 681 c 0
 318.541992188 652.817382812 371 620 371 553 c 0
 371 499.951212439 287.131384076 465.895771598 221.463737846 431.014930336 c 1
 249 371 l 1
 217 335 l 1
 178.268197032 410.527015787 l 1
 120.977666783 387.167345441 66 371.489696236 66 273 c 0
 66 210 114 179 173 138 c 0
 226.234751022 101.006359459 317 77 371 59 c 1
 371 21 l 1
 278 46 186 73 137 108 c 0
EndSplineSet
Validated: 524289
EndChar

StartChar: M
Encoding: 77 77 22
Width: 400
VWidth: 0
Flags: W
VStem: 330 41<207.731 273 552 602.077>
LayerCount: 2
Fore
SplineSet
371 553 m 2
 371 620 318.541992188 652.817382812 259 681 c 0
 183.216796875 716.87109375 89 749 35 768 c 1
 35 730 l 1
 190 666 114.216839909 701.871184665 190 666 c 0
 249.541992188 637.81640625 332 619 332 552 c 0
 332 529.125903167 331.630752424 497.511807888 331.209572911 458.960429124 c 1
 283 441 l 1
 281 387 l 1
 330.65917824 405.144699742 l 1
 330.295417902 365.592345092 330 321.114095917 330 273 c 0
 330 210 282 167 219 134 c 0
 161.575203825 103.920344861 75 77 21 59 c 1
 21 21 l 1
 114 46 202.0679744 79.2911047596 255 108 c 0
 314 140 371 199 371 262 c 2
 371 419.884615385 l 1
 385 425 l 1
 385 479 l 1
 371 473.784313725 l 1
 371 553 l 2
EndSplineSet
Validated: 524297
EndChar

StartChar: N
Encoding: 78 78 23
Width: 400
VWidth: 0
Flags: W
HStem: 23 21G<314 354> 723 41<46 231.47>
VStem: 314 40<23 374.981 443.431 665.548>
LayerCount: 2
Fore
SplineSet
354 389.596153846 m 1
 354 23 l 1
 314 23 l 1
 314 374.980769231 l 1
 273 360 l 1
 275 414 l 1
 314 428.529411765 l 1
 314 538 l 2
 312 589 319.7109375 636.283203125 293 667 c 0
 253 713 148 726 46 723 c 1
 46 764 l 1
 153 765 227 755 288 719 c 0
 318.872070312 700.780273438 351 666 354 629 c 2
 354 443.431372549 l 1
 377 452 l 1
 377 398 l 1
 354 389.596153846 l 1
EndSplineSet
Validated: 524321
EndChar

StartChar: O
Encoding: 79 79 24
Width: 400
VWidth: 0
Flags: W
HStem: 723 41<168.53 354>
VStem: 46 40<538 665.548>
LayerCount: 2
Fore
SplineSet
15 424 m 1
 13 370 l 1
 46 382.057692308 l 1
 46 23 l 1
 86 23 l 1
 86 396.673076923 l 1
 117 408 l 1
 117 462 l 1
 86 450.450980392 l 1
 86 538 l 2
 88 589 80.2890625 636.283203125 107 667 c 0
 147 713 252 726 354 723 c 1
 354 764 l 1
 247 765 173 755 112 719 c 0
 81.1279296875 700.780273438 49 666 46 629 c 2
 46 435.549019608 l 1
 15 424 l 1
EndSplineSet
Validated: 524329
EndChar

StartChar: P
Encoding: 80 80 25
Width: 400
VWidth: 0
Flags: W
HStem: 21 21G<324.5 371> 748 20G<330 357>
VStem: 21 39<213.075 396.846 465.015 599.709>
LayerCount: 2
Fore
SplineSet
21 553 m 2
 21 620 73.4580078125 652.817382812 133 681 c 0
 208.783203125 716.87109375 303 749 357 768 c 1
 357 730 l 1
 202 666 277.783203125 701.87109375 202 666 c 0
 142.458007812 637.81640625 60 619 60 552 c 0
 60 530.334923409 60.3312456625 500.829287864 60.7241243171 465.014869844 c 1
 109 483 l 1
 109 429 l 1
 61.2808043645 411.564140056 l 1
 61.6715206968 370.427149111 62 323.734893119 62 273 c 0
 62 210 110 167 173 134 c 0
 230.424804688 103.919921875 317 77 371 59 c 1
 371 21 l 1
 278 46 189.931640625 79.291015625 137 108 c 0
 78 140 21 199 21 262 c 2
 21 396.846153846 l 1
 5 391 l 1
 7 445 l 1
 21 450.215686275 l 1
 21 553 l 2
EndSplineSet
Validated: 524289
EndChar

StartChar: Q
Encoding: 81 81 26
Width: 400
VWidth: 0
Flags: W
HStem: 21 38<21 77.1961>
VStem: 21 43<524.212 612.9> 326 45<208.862 354.24>
LayerCount: 2
Fore
SplineSet
255 108 m 0
 306.778320312 144.984375 371 199 371 262 c 0
 371 392.095703125 300.649414062 402.104492188 233 439 c 0
 230.266512726 440.490832685 227.472615066 441.981900756 224.627874862 443.47435598 c 2
 249 491 l 1
 215 541 l 1
 180.39883417 465.587202678 l 1
 122.896813437 493.912138975 64 524.630459561 64 565 c 0
 64 632 142.458007812 637.81640625 202 666 c 0
 277.783203125 701.87109375 202 666 357 730 c 1
 357 768 l 1
 303 749 208.783203125 716.87109375 133 681 c 0
 73.4580078125 652.817382812 21 620 21 553 c 0
 21 501.243447132 100.831615829 467.566483337 165.705503591 433.563277058 c 1
 137 371 l 1
 169 335 l 1
 208.777674688 412.566465641 l 1
 267.810196777 388.001692969 326 374.326193488 326 273 c 0
 326 210 278 179 219 138 c 0
 165.765625 101.006835938 75 77 21 59 c 1
 21 21 l 1
 114 46 206 73 255 108 c 0
EndSplineSet
Validated: 524297
EndChar

StartChar: R
Encoding: 82 82 27
Width: 400
VWidth: 0
Flags: W
HStem: 21 21G<300 340> 726 38<265.588 351>
VStem: 300 40<21 173.154 241.569 360.08>
LayerCount: 2
Fore
SplineSet
340 187.769230769 m 1
 340 21 l 1
 300 21 l 1
 300 173.153846154 l 1
 264 160 l 1
 266 214 l 1
 300 226.666666667 l 1
 300 314 l 1
 300 314 310.495117188 352.9453125 256 374 c 0
 212 391 135 399 78 411 c 0
 55 416 34.0341796875 432.998046875 35 454 c 0
 39 541 69 601 131 662 c 0
 198 728 251 753 351 764 c 1
 351 726 l 1
 263 718 213.196289062 689.796875 152 631 c 0
 101 582 93.9951171875 548.986328125 70 483 c 0
 66 472 66 453 91 444 c 0
 153.764648438 421.404296875 222.912109375 420.677734375 270 408 c 0
 348 387 340 346 340 346 c 1
 340 241.568627451 l 1
 368 252 l 1
 368 198 l 1
 340 187.769230769 l 1
EndSplineSet
Validated: 524321
EndChar

StartChar: S
Encoding: 83 83 28
Width: 400
VWidth: 0
Flags: W
VStem: 49 40<295 337.979> 293 40<432.021 475>
LayerCount: 2
Fore
SplineSet
191.299804688 400.381835938 m 0
 164.4921875 395.41015625 142.377929688 394.216796875 123 389 c 0
 45 368 49 327 49 327 c 1
 49 222.803921569 l 1
 20 212 l 1
 18 158 l 1
 49 169.326923077 l 1
 49 6 l 1
 89 6 l 1
 89 183.942307692 l 1
 122 196 l 1
 122 250 l 1
 89 237.705882353 l 1
 89 295 l 1
 89 295 82.5048828125 333.9453125 137 355 c 0
 151.828125 360.729492188 169.404296875 363.435546875 191.640625 369.063476562 c 0
 216.5078125 372.58984375 239.622070312 375.783203125 259 381 c 0
 337 402 333 443 333 443 c 1
 333 764 l 1
 293 764 l 1
 293 475 l 1
 293 475 299.495117188 436.0546875 245 415 c 0
 230.171875 409.271484375 211.595703125 404.564453125 191.299804688 400.381835938 c 0
EndSplineSet
Validated: 524329
EndChar

StartChar: T
Encoding: 84 84 29
Width: 400
VWidth: 0
Flags: W
HStem: 21 38<265.588 351>
VStem: 300 40<424.92 471>
LayerCount: 2
Fore
SplineSet
268 596 m 1
 266 542 l 1
 300 554.423076923 l 1
 300 471 l 1
 300 471 310.495117188 432.0546875 256 411 c 0
 212 394 135 386 78 374 c 0
 55 369 34.0341796875 352.001953125 35 331 c 0
 39 244 69 184 131 123 c 0
 198 57 251 32 351 21 c 1
 351 59 l 1
 263 67 213.196289062 95.203125 152 154 c 0
 101 203 93.9951171875 236.013671875 70 302 c 0
 66 313 66 332 91 341 c 0
 153.764648438 363.595703125 222.912109375 364.322265625 270 377 c 0
 348 398 340 439 340 439 c 1
 340 569.038461538 l 1
 370 580 l 1
 370 634 l 1
 340 622.823529412 l 1
 340 764 l 1
 300 764 l 1
 300 607.921568627 l 1
 268 596 l 1
EndSplineSet
Validated: 524329
EndChar

StartChar: U
Encoding: 85 85 30
Width: 400
VWidth: 0
Flags: W
HStem: 23 41<46 231.47>
VStem: 314 40<121.452 249>
LayerCount: 2
Fore
SplineSet
275 586 m 1
 273 532 l 1
 314 546.980769231 l 1
 314 249 l 2
 312 198 319.7109375 150.716796875 293 120 c 0
 253 74 148 61 46 64 c 1
 46 23 l 1
 153 22 227 32 288 68 c 0
 318.872070312 86.2197265625 351 121 354 158 c 2
 354 561.596153846 l 1
 377 570 l 1
 377 624 l 1
 354 615.431372549 l 1
 354 764 l 1
 314 764 l 1
 314 600.529411765 l 1
 275 586 l 1
EndSplineSet
Validated: 524329
EndChar

StartChar: V
Encoding: 86 86 31
Width: 400
VWidth: 0
Flags: W
LayerCount: 2
Fore
SplineSet
354 679.833333333 m 1
 354 764 l 1
 314 764 l 1
 314 664.277777778 l 1
 267 646 l 1
 267 596 l 1
 314 609.672727273 l 1
 314 438 l 1
 46 438 l 1
 46 397 l 1
 314 397 l 1
 314 24 l 1
 354 24 l 1
 354 621.309090909 l 1
 377 628 l 1
 375 688 l 1
 354 679.833333333 l 1
EndSplineSet
Validated: 524297
EndChar
